<?xml version="1.0" encoding="UTF-8" standalone="no"?>
<!-- Created with Inkscape (http://www.inkscape.org/) -->

<svg
   version="1.1"
   id="svg1"
   width="56"
   height="56"
   viewBox="0 0 1280 1070"
   sodipodi:docname="颐康养老中心logo.svg"
   inkscape:version="1.4 (86a8ad7, 2024-10-11)"
   xmlns:inkscape="http://www.inkscape.org/namespaces/inkscape"
   xmlns:sodipodi="http://sodipodi.sourceforge.net/DTD/sodipodi-0.dtd"
   xmlns="http://www.w3.org/2000/svg"
   xmlns:svg="http://www.w3.org/2000/svg">
  <defs
     id="defs1" />
  <sodipodi:namedview
     id="namedview1"
     pagecolor="#ffffff"
     bordercolor="#000000"
     borderopacity="0.25"
     inkscape:showpageshadow="2"
     inkscape:pageopacity="0.0"
     inkscape:pagecheckerboard="0"
     inkscape:deskcolor="#d1d1d1"
     inkscape:zoom="0.76168224"
     inkscape:cx="640.03067"
     inkscape:cy="535"
     inkscape:window-width="1920"
     inkscape:window-height="1017"
     inkscape:window-x="-8"
     inkscape:window-y="-8"
     inkscape:window-maximized="1"
     inkscape:current-layer="g1" />
  <g
     inkscape:groupmode="layer"
     inkscape:label="Image"
     id="g1">
    <path
       style="fill:#018136;fill-opacity:1"
       d="m 604.30677,822.71637 c 0,-5.0747 0.4878,-7.974 1.6118,-9.5786 l 1.6117,-2.30114 -2.7988,-2.92138 c -3.3411,-3.4873 -8.3416,-3.9185 -12.0069,-1.03538 l -2.3977,1.886 1.99,0.52038 c 2.6338,0.68878 2.6048,4.58202 -0.073,9.83172 -1.494,2.9284 -3.2185,4.5397 -6.25,5.8395 -6.6582,2.8548 -9.3577,3.2226 -11.0719,1.5084 -2.2994,-2.2994 -0.9292,-4.2431 3.5213,-4.995 4.9338,-0.8336 8.6076,-3.9396 9.8375,-8.3171 l 0.9384,-3.34014 -1.706,0.74091 c -0.9383,0.4075 -4.2818,1.68123 -7.4299,2.83053 l -5.7239,2.0896 -1.5629,-1.5629 c -2.4751,-2.47511 -0.8598,-4.61604 3.8864,-5.151 5.1428,-0.57967 10.4175,-3.64774 8.4339,-4.90569 -0.7203,-0.45682 -3.1671,-0.83748 -5.4372,-0.8459 -4.2666,-0.0158 -7.1132,-2.00774 -5.8319,-4.08093 0.5065,-0.81952 3.3849,-0.95289 9.9473,-0.46089 l 9.2345,0.69235 0.6075,-1.58292 c 0.4828,-1.2582 -0.1555,-1.60719 -3.1112,-1.70123 -6.7852,-0.21589 -9.7186,-1.23957 -9.7186,-3.39151 v -1.99018 h 7.5 c 10.6973,0 9.9009,-1.83578 -1.2248,-2.82312 -9.7294,-0.86342 -11.4284,-1.53229 -10.4394,-4.10966 0.4461,-1.16249 2.0348,-1.56722 6.1519,-1.56722 h 5.5504 l -0.5935,-2.36446 c -0.4228,-1.68468 -0.099,-2.55412 1.1256,-3.02412 2.0719,-0.79505 5.4298,1.95677 5.4298,4.44973 0,1.346 1.1716,1.91232 5.064,2.44766 2.7852,0.38306 5.1714,0.53779 5.3027,0.34383 0.1312,-0.19395 1.0308,-1.61771 1.9991,-3.16391 1.2176,-1.94415 2.4351,-2.71507 3.9474,-2.49939 l 2.1868,0.31188 -0.2538,3.24939 -0.2538,3.24939 4.2538,0.0153 c 5.1263,0.0185 7.077,1.08745 6.5774,3.60452 l -0.3732,1.88017 -5.4752,-0.26968 c -3.0114,-0.14832 -7.3877,-0.51339 -9.7252,-0.81127 -3.3142,-0.42234 -4.25,-0.21868 -4.25,0.9249 0,1.07613 1.9299,1.69136 7.25,2.31127 l 7.25,0.84479 v 2 2 l -8.6106,-0.33462 -8.6105,-0.33461 -0.5695,1.48399 -0.5694,1.484 9.18,0.65286 c 13.4877,0.95921 14.8529,1.32582 14.4875,3.89046 l -0.3075,2.15792 -5.75,-0.34757 c -3.1625,-0.19117 -5.75,-0.0158 -5.75,0.38975 0,1.16993 3.1437,3.38785 7.75,5.46774 4.3887,1.98168 5.2944,3.87838 2.829,5.92448 -1.1195,0.9291 -2.4989,0.6332 -6.5,-1.3944 l -5.079,-2.5737 v 4.8918 c 0,8.3243 -0.9167,11.1419 -3.625,11.1419 h -2.375 z m 32.6667,6.6108 c -1.6053,-1.6052 -0.535,-4.3282 1.9458,-4.9509 l 2.6125,-0.6557 -0.4447,-5.3622 c -0.5258,-6.34045 -0.9169,-6.89696 -3.7728,-5.3685 -2.8972,1.5505 -5.0075,0.5899 -5.0075,-2.2794 0,-1.70392 0.9737,-2.8105 3.5569,-4.04237 l 3.557,-1.6962 -0.307,-4.23901 -0.3069,-4.23902 -3.6953,0.28646 c -2.8837,0.22354 -3.9371,-0.16537 -4.7963,-1.77067 -1.4401,-2.69097 -0.5222,-4.01219 2.8006,-4.0311 3.9999,-0.0228 4.6947,-0.98288 4.6928,-6.48469 v -5 h 2.4863 c 1.4557,0 2.568,0.62172 2.6834,1.5 1.0122,7.70308 1.4258,8.78777 3.1766,8.32994 2.182,-0.5706 4.5966,2.07327 3.7969,4.15733 -0.3193,0.832 -1.4946,1.51273 -2.6119,1.51273 h -2.0311 v 3.57946 3.57945 l 3,-0.65891 3,-0.65891 v 2.60089 c 0,1.82635 -0.7695,2.95148 -2.5838,3.77813 l -2.5837,1.17724 0.5617,4.05135 c 0.309,2.2282 0.8466,6.3533 1.1948,9.1668 l 0.633,5.1156 -2.3335,1.6344 c -2.3332,1.6343 -7.9644,2.2253 -9.2218,0.9678 z m 13.0421,-0.9578 c -1.2761,-1.2761 -0.747,-4.1965 1.4282,-7.8832 l 2.1371,-3.6221 -0.7104,-13.99429 c -0.8013,-15.78694 -0.5644,-16.53235 5.5662,-17.51267 2.1285,-0.34037 3.8701,-0.80218 3.8701,-1.02623 0,-0.22406 -0.7282,-1.5188 -1.6183,-2.8772 l -1.6183,-2.46982 1.2407,-1.495 c 0.6824,-0.82224 1.7822,-1.49499 2.444,-1.49499 1.7305,0 5.5519,4.33133 5.5519,6.29282 v 1.66391 l 4.4832,-0.19512 c 2.4658,-0.10732 4.9758,0.2974 5.5778,0.89937 2.7816,2.78168 3.8374,15.29773 1.4885,17.64662 -1.3786,1.3786 -2.9851,1.71818 -15.2995,3.23389 l -5.25,0.64619 v 6.69422 c 0,4.9535 -0.5851,7.8546 -2.25,11.1562 -2.1234,4.2108 -5.2449,6.1337 -7.0412,4.3374 z m 24.108,-30.84877 c 0.9609,-0.89881 1.0746,-2.15015 0.4209,-4.62925 l -0.8959,-3.39748 -3.4209,0.26089 c -1.8815,0.14349 -5.3334,0.50856 -7.6709,0.81127 l -4.25,0.55039 v 2.85694 c 0,1.57131 0.2759,3.57605 0.6132,4.45497 l 0.6132,1.59804 6.6368,-0.637 c 3.6502,-0.35034 7.2293,-1.19129 7.9536,-1.86877 z m 22.3832,23.27327 c -0.66,-0.66 -1.2,-3.5856 -1.2,-6.5013 0,-3.62855 -1.5777,-10.19122 -5,-20.7987 -2.75,-8.52358 -5,-16.3429 -5,-17.37626 0,-2.55894 1.5597,-3.64233 7.9629,-5.53103 l 5.4629,-1.61136 1.6702,1.75933 c 0.9185,0.96762 4.6769,10.84698 8.3518,21.95411 7.2918,22.03891 7.3828,23.52461 1.5195,24.81241 -5.1664,1.1347 -7.9887,-2.882 -3.9596,-5.63523 l 2.0078,-1.37197 -1.6986,-5.25 c -1.6691,-5.15849 -3.1716,-6.26477 -6.0366,-4.44444 -0.9472,0.60188 -0.8435,2.59371 0.4644,8.91906 l 1.6841,8.14408 -1.8694,2.0657 c -2.165,2.3923 -2.7221,2.5029 -4.3594,0.8656 z m 4.6569,-25.69039 c 0.9374,-0.59395 1.1447,-1.82591 0.6705,-3.98469 -0.7322,-3.33389 -1.5528,-3.71691 -4.539,-2.11873 l -1.8801,1.00619 1.0437,2.99381 c 1.0684,3.06483 2.3109,3.62031 4.7049,2.10342 z m -4.2267,-11.70857 2.1302,-0.57166 -1.048,-3.41469 c -1.7999,-5.86462 -6.8026,-3.89461 -5.3012,2.08755 0.6696,2.66807 0.9247,2.78285 4.219,1.8988 z m -162.24875,33.15066 c -0.33528,-0.8737 -0.10827,-3.5796 0.50447,-6.01297 0.61274,-2.4334 1.11407,-4.62632 1.11407,-4.87314 0,-0.24683 -1.2375,-0.75101 -2.75,-1.1204 -1.5125,-0.36939 -6.4625,-1.79541 -11,-3.16892 -6.39018,-1.93433 -8.25,-2.90692 -8.25,-4.31434 0,-2.93361 2.34451,-4.26164 5.44346,-3.08343 4.40922,1.67639 5.26653,1.23032 6.41705,-3.33881 1.44764,-5.74909 3.16894,-7.0925 7.89795,-6.16405 6.90184,1.35503 8.43269,1.15967 9.31675,-1.18897 l 0.8332,-2.21334 -5.34591,-1.68515 -5.34592,-1.68515 -3.47632,2.14848 c -4.29984,2.65745 -6.36622,2.71591 -7.70309,0.21794 -1.20776,-2.25672 0.30118,-4.16978 5.30757,-6.72904 1.73539,-0.88713 4.84406,-3.12664 6.90814,-4.97668 4.2666,-3.82418 4.97253,-3.99546 7.2169,-1.75109 l 1.61263,1.61263 -1.57606,2.40538 c -1.23286,1.88159 -1.29627,2.50735 -0.2912,2.87371 0.70667,0.25759 6.90986,2.18236 13.78486,4.27726 l 12.5,3.8089 0.3201,2.20921 c 0.4771,3.29233 -1.8373,3.5944 -9.9497,1.29864 -7.596,-2.14959 -8.8197,-1.8561 -8.8551,2.1237 -0.011,1.23393 1.5624,2.18071 5.5507,3.34013 5.9661,1.7344 7.621,3.6794 5.1948,6.10555 l -1.5127,1.51267 -5.6119,-1.76901 c -3.0866,-0.97295 -5.8377,-1.54323 -6.1137,-1.26729 -0.2759,0.27594 -0.7728,1.85709 -1.1041,3.51366 l -0.6024,3.01195 8.0318,2.28693 c 7.9123,2.25293 9.6482,3.58709 8.5138,6.54334 -0.7559,1.9698 -2.572,1.8784 -10.2007,-0.5129 -3.4865,-1.09291 -6.8615,-1.98474 -7.5,-1.98185 -0.6385,0.003 -1.83591,2.14039 -2.66091,4.74995 -1.13677,3.5958 -2.04593,4.8223 -3.75447,5.0649 -1.36133,0.1933 -2.49597,-0.3092 -2.86407,-1.2684 z m 4.65044,-20.13562 c 1.20843,-3.17839 0.74569,-4.0041 -2.73325,-4.87726 -2.00085,-0.50218 -3.06119,-0.21647 -4.00945,1.08035 -1.81685,2.4847 -1.60084,5.15274 0.4608,5.6915 3.94279,1.03036 5.32877,0.61236 6.2819,-1.89459 z m 180.66191,17.83392 c -2.0219,-3.57516 -14.6104,-44.30373 -14.1025,-45.62725 0.8183,-2.13251 4.3252,-3.96119 11.7178,-6.11029 l 5.7828,-1.68109 1.5118,1.25471 c 2.0768,1.72362 4.3963,7.55391 4.3963,11.05074 0,2.19028 -0.7891,3.37369 -3.25,4.87414 -4.2279,2.57779 -6.4493,2.51195 -7.3154,-0.21685 -0.5193,-1.63619 -0.1493,-2.57161 1.4327,-3.62197 2.7743,-1.84211 2.9004,-6.17214 0.1797,-6.17214 -1.5812,0 -6.2909,1.57306 -7.8998,2.6386 -0.194,0.1285 0.6121,3.13315 1.7914,6.677 l 2.1442,6.44335 7.2086,-2.30713 7.2086,-2.30713 2,1.29384 2,1.29385 0.5,7.88381 0.5,7.88381 5,1.58175 5,1.58176 v 2.41824 2.41825 l -3.1863,0.30861 c -1.7525,0.16973 -4.5512,-0.39717 -6.2193,-1.25978 l -3.0329,-1.5684 -1.6092,3.11178 -1.6092,3.11177 -2.8962,-0.42508 -2.8962,-0.42507 0.5624,2.24092 c 0.401,1.59777 -0.018,2.55145 -1.4596,3.32305 -2.3945,1.2815 -2.8955,1.3296 -3.4597,0.3322 z m 3.9119,-18.2647 c -3.9538,-4.37634 -4.1791,-5.01189 -2.4057,-6.7853 1.3621,-1.3621 -0.027,-1.59601 -2.0103,-0.33843 -1.0437,0.6619 -0.742,2.4787 1.4831,8.93048 l 2.7933,8.09953 1.8726,-2.95761 1.8727,-2.95761 z m 5.0875,-9.62539 c -0.2515,-0.25149 -1.68,-0.15035 -3.1744,0.22474 l -2.7173,0.68198 2.8493,2.28488 2.8492,2.28489 0.3252,-2.50962 c 0.1789,-1.38029 0.1195,-2.71539 -0.132,-2.96687 z m -245.72523,10.39009 c -4.50691,-2.3375 -9.83094,-5.66438 -11.83118,-7.39307 l -3.6368,-3.14308 2.68787,-5.50239 c 1.47832,-3.02632 2.41582,-5.77443 2.08333,-6.10693 -0.33249,-0.33249 -2.89203,-0.61142 -5.68787,-0.61984 -5.92715,-0.0179 -7.92644,-0.99105 -7.40495,-3.60452 l 0.37517,-1.88017 h 7.97322 c 4.38528,0 8.56493,-0.3821 9.28812,-0.84912 0.72318,-0.46701 2.82559,-0.56571 4.67201,-0.21931 6.15825,1.15529 4.47101,-0.97739 -4.80296,-6.07094 -6.57196,-3.60953 -9.18394,-5.58294 -9.18394,-6.93868 0,-3.21413 3.22877,-2.75158 11.15369,1.59787 5.99977,3.29286 7.78817,3.89051 8.46168,2.82775 1.53422,-2.42092 0.94484,-3.31278 -3.86431,-5.84757 -2.60874,-1.375 -4.8907,-3.28886 -5.07102,-4.25302 -0.57948,-3.09845 2.85449,-3.23347 8.04404,-0.31628 2.7035,1.51971 5.0481,2.607 5.21023,2.4162 0.16213,-0.19079 0.82157,-1.3594 1.46542,-2.5969 1.3433,-2.58186 4.87435,-3.00232 5.76311,-0.68623 0.33005,0.86007 0.0931,2.67652 -0.52659,4.03655 l -1.12668,2.47278 3.49522,2.06222 c 1.92236,1.13423 3.49521,2.69278 3.49521,3.46346 0,1.77228 -0.12808,1.78776 5.38441,-0.65067 5.14806,-2.27724 6.61559,-1.9495 6.61559,1.47743 v 2.30752 l -6.68017,2.98573 -6.68017,2.98573 4.68017,2.74276 c 4.46695,2.61781 6.04302,5.5924 3.72287,7.02633 -0.52652,0.32541 -4.46402,-1.14355 -8.75,-3.26434 l -7.7927,-3.85599 -7,1.67044 -7,1.67044 2.62289,1.07984 c 1.4426,0.59392 5.84623,1.39747 9.78586,1.78567 5.23932,0.51627 7.40932,1.16614 8.0803,2.41988 2.28445,4.26853 -3.15291,5.04257 -15.18859,2.16219 -8.00703,-1.91624 -9.80046,-1.55205 -9.80046,1.99017 0,1.89444 3.19531,4.44061 9.71016,7.73751 4.99449,2.52749 7.58153,2.68896 9.32989,0.58232 2.00236,-2.41269 5.40631,-1.41483 5.76595,1.69029 0.2296,1.9823 -0.43321,3.16839 -2.65437,4.75 -4.12823,2.93956 -5.8558,2.69584 -15.18365,-2.14203 z m 16.5803,-33.82812 c 0.28441,-0.46019 -0.83036,-1.53351 -2.47726,-2.38516 l -2.99438,-1.54845 -1.04493,1.95248 c -0.8139,1.52078 -0.68041,2.15646 0.60371,2.8751 1.76078,0.98538 5.05961,0.48663 5.91286,-0.89397 z m 257.78623,34.50757 c -0.3797,-0.98969 0.6977,-2.93137 2.9132,-5.25 4.0779,-4.26766 5.7523,-7.21162 5.7523,-10.11371 0,-2.57241 -0.3348,-2.56759 -5.0323,0.0725 -4.1482,2.33145 -6.9677,1.96612 -6.9677,-0.90282 0,-1.157 1.9258,-2.92704 5.25,-4.82528 l 5.25,-2.99798 -0.3161,-3.11774 c -0.2494,-2.45964 0.1351,-3.26096 1.8217,-3.79624 1.3809,-0.4383 2.7923,-0.0861 3.9867,0.9948 l 1.849,1.6733 5.96218,-3.30283 5.9622,-3.30284 1.6951,1.40686 c 2.8903,2.39871 6.6777,10.9506 6.3466,14.33057 -0.5534,5.64893 -10.6994,10.28231 -11.6462,5.31844 -0.2178,-1.14168 0.6948,-2.72398 2.3171,-4.01758 l 2.6765,-2.1341 -0.7061,-2.81319 c -0.9557,-3.80775 -2.5151,-4.16859 -7.3518,-1.70112 l -4.09688,2.09016 v 4.01179 c 0,5.13665 -2.1239,10.17244 -6.5882,15.62046 -3.7276,4.5491 -7.9029,5.81701 -9.0773,2.75655 z m -12.3632,-17.48303 -1.099,-2.05358 7.0638,-6.54006 c 7.2479,-6.7104 8.3707,-8.74376 5.3139,-9.6227 -0.9625,-0.27674 -2.5375,-0.82737 -3.5,-1.22362 -1.2267,-0.50499 -1.75,-0.25394 -1.75,0.8395 0,3.35506 -2.3325,6.74994 -4.4314,6.44982 -2.2727,-0.32495 -2.3112,-0.82138 -1.0128,-13.03633 0.8249,-7.76016 2.2936,-9.71316 5.8667,-7.80092 l 2.3543,1.26001 7.1374,-4.16846 c 7.7578,-4.53077 10.6446,-4.65621 11.6858,-0.50778 0.3325,1.32496 -0.1165,4.52513 -0.9977,7.11149 -0.8813,2.58637 -1.6023,5.3059 -1.6023,6.0434 0,1.61888 3.168,1.04354 10.65348,-1.93476 5.9014,-2.34804 8.6402,-1.85125 8.1666,1.48133 -0.4045,2.84654 -9.1226,6.50496 -17.61728,7.39283 l -5.8704,0.61358 -4.4162,5.40257 c -4.2469,5.19545 -12.3822,12.34726 -14.0451,12.34726 -0.4404,0 -1.2953,-0.92411 -1.8998,-2.05358 z m 19.4201,-26.96666 c 0.8847,-2.21113 1.6086,-4.27889 1.6086,-4.59502 0,-0.59213 -8.7795,4.2256 -10.4195,5.71772 -0.5309,0.483 0.1031,1.24531 1.5,1.80367 4.3909,1.75508 5.6374,1.25613 7.3109,-2.92637 z m -325.25558,17.68391 c -1.89335,-2.28136 -4.12056,-9.68708 -4.29425,-14.27885 -0.0912,-2.41165 -0.33164,-4.38482 -0.53427,-4.38482 -0.20263,0 -1.75128,1.575 -3.44145,3.5 -3.63775,4.14317 -6.61376,4.4617 -9.81806,1.05088 -3.11565,-3.31646 -2.11594,-6.01451 1.92883,-5.20555 5.20807,1.04161 4.11428,-0.95143 -1.49201,-2.71866 -2.98389,-0.94058 -6.14575,-2.43066 -7.02636,-3.31127 l -1.60112,-1.60111 1.44711,-1.44711 1.44711,-1.44712 2.87432,1.46953 c 1.58088,0.80825 4.33682,1.78449 6.12432,2.16943 1.81297,0.39042 3.25,1.328 3.25,2.12044 0,2.0691 0.80128,1.76201 3.46887,-1.32946 l 2.37295,-2.75 -1.5759,-1.75 c -2.19044,-2.43244 -3.26592,-2.18546 -3.26592,0.75 0,3.51832 -3.71891,3.46813 -4.60495,-0.0621 -0.72364,-2.88322 2.26104,-9.43786 4.29756,-9.43786 0.68079,0 2.84357,1.40989 4.80618,3.13308 1.96261,1.7232 3.88433,2.81713 4.27049,2.43098 0.38616,-0.38616 -1.46085,-2.58355 -4.10447,-4.88309 -3.54232,-3.08127 -4.62827,-4.64127 -4.1287,-5.93097 0.9988,-2.57851 2.78398,-2.15995 7.46389,1.75 5.46601,4.56672 7.62335,4.49004 2.68988,-0.0956 -6.08284,-5.65399 -3.65876,-9.95 2.54225,-4.50544 2.88544,2.53345 7.89988,3.92393 7.71107,2.13825 -0.093,-0.88004 -11.6713,-10.03725 -12.6909,-10.03725 -0.51657,0 -2.90729,2.3625 -5.3127,5.25 -13.04796,15.66304 -20.49063,21.66205 -25.0713,20.2082 -2.52013,-0.79986 -2.13682,-4.33928 0.6317,-5.83306 6.40583,-3.45632 9.38888,-6.12797 17.12976,-15.34158 4.72088,-5.61905 9.41846,-10.48148 10.43906,-10.8054 2.29253,-0.72762 5.09501,0.72089 10.99554,5.68322 5.22067,4.39058 5.93564,4.61205 5.93564,1.83862 0,-1.25926 0.66667,-2 1.8,-2 2.8301,0 4.19439,2.06217 4.26721,6.45 l 0.0672,4.05 6.48616,5.35367 c 4.01785,3.31633 6.36634,5.9758 6.17131,6.98851 -0.64147,3.33089 -3.86477,2.15517 -11.57159,-4.22084 l -7.86697,-6.5085 0.0733,2.0943 c 0.0403,1.15186 2.09834,4.02261 4.57334,6.37943 l 4.5,4.28513 -1.8112,3.07205 -1.8112,3.07205 1.5612,0.59909 c 2.24775,0.86253 2.0472,5.38511 -0.23876,5.38511 -0.99,0 -2.30208,-0.50208 -2.91573,-1.11573 -0.82097,-0.82097 -1.72514,-0.68888 -3.42251,0.5 -3.23472,2.26569 -4.52536,2.05022 -9.01397,-1.50482 -2.16701,-1.71631 -4.21927,-2.84131 -4.56057,-2.5 -0.3413,0.3413 -0.0956,0.62055 0.54611,0.62055 0.64167,0 1.16667,1.32284 1.16667,2.93963 v 2.93964 l 3.75,0.31036 3.75,0.31037 0.31955,2.25 0.31955,2.25 h -3.56955 c -4.13994,0 -4.29996,0.64796 -1.51035,6.11604 1.61589,3.1674 1.80481,4.34289 0.87756,5.46016 -1.48262,1.78644 -3.36248,1.82069 -4.80093,0.0875 z m 7.36466,-27.07345 c -1.64972,-1.31992 -3.3469,-2.18515 -3.77149,-1.92273 -1.04465,0.64563 3.39031,4.25879 5.271,4.29427 0.89867,0.017 0.29753,-0.93377 -1.49951,-2.37154 z m 6.49951,-3.26148 c 0,-1.33158 -3.34374,-4.32874 -4.8293,-4.32874 -1.13796,0 -0.92979,0.62753 0.8293,2.5 2.27362,2.42015 4,3.20943 4,1.82874 z m 368.09169,6.68326 -5.2082,-5.98799 -5.9937,4.98799 c -3.4434,2.86563 -6.9926,4.988 -8.3414,4.988 -1.5739,0 -4.0289,-1.83944 -7.4481,-5.58059 -6.9859,-7.64373 -6.9345,-10.09529 0.3509,-16.72224 l 5.4512,-4.95854 -2.5337,-3.32183 c -1.3935,-1.827 -2.3794,-4.1307 -2.191,-5.11931 0.5604,-2.93939 4.691,-2.79747 7.894,0.27122 l 2.8559,2.7361 5.2862,-4.50974 c 8.4624,-7.21947 10.2732,-7.06396 17.6499,1.51575 5.7009,6.63056 5.5051,8.80564 -1.3637,15.14737 -3.025,2.7929 -5.5,5.46953 -5.5,5.94807 0,0.47854 1.7494,2.76797 3.8876,5.08762 5.5793,6.05282 6.4709,8.00475 4.539,9.93667 -2.527,2.52703 -3.8304,1.91012 -9.3349,-4.41855 z m -13.5917,-7.52015 4,-3.43307 -3.751,-3.7637 -3.751,-3.76371 -4.0715,4.07148 -4.0714,4.07148 2.6613,3.16283 c 1.4638,1.73956 3.1839,3.14594 3.8225,3.12529 0.6386,-0.0207 2.9611,-1.58242 5.1611,-3.4706 z m 13.7078,-12.1948 c 2.0857,-2.03662 3.7922,-4.20243 3.7922,-4.81291 0,-0.61048 -1.3156,-2.37034 -2.9235,-3.9108 l -2.9234,-2.80085 -4.5262,3.78343 -4.5262,3.78342 3.0337,3.83033 c 1.6685,2.10668 3.3144,3.83033 3.6575,3.83033 0.343,0 2.3302,-1.66633 4.4159,-3.70295 z m -427.08158,2.80212 c -1.01429,-0.6425 -1.26357,-2.60107 -0.9526,-7.48469 l 0.42118,-6.61448 -3.0474,-0.006 c -4.62997,-0.008 -10.58726,-1.93474 -11.23941,-3.63423 -1.00929,-2.63016 1.9336,-4.59904 5.08393,-3.40129 6.57448,2.49962 11.85151,0.93349 20.8999,-6.2027 l 3.79182,-2.99049 1.96628,1.77946 1.96628,1.77946 -1.74129,1.9241 c -0.9577,1.05825 -4.57795,3.75861 -8.04499,6.00079 -4.352,2.8145 -5.98267,4.39772 -5.26681,5.11358 1.4345,1.4345 1.30665,11.96715 -0.1631,13.4369 -1.41765,1.41765 -1.85219,1.45304 -3.67379,0.29917 z m 8.54046,-9.76584 c -1.79667,-1.79667 -0.0611,-4.31575 6.33333,-9.19232 3.85,-2.93613 7,-5.89403 7,-6.5731 0,-0.67908 -1.4625,-2.92576 -3.25,-4.99261 l -3.25,-3.75793 -7.8236,6.17006 c -7.78092,6.1364 -10.6764,6.98519 -10.6764,3.12971 0,-2.35405 15.55368,-15.10341 18.43555,-15.11162 1.06455,-0.003 2.89245,0.89345 4.06201,1.99219 l 2.12646,1.9977 1.84964,-1.35249 1.84964,-1.35249 -2.69807,-3.53736 -2.69808,-3.53736 1.74813,-1.74813 1.74812,-1.74812 3.61692,4.07575 c 7.7099,8.68798 11.99909,14.93852 11.37213,16.57235 -0.95259,2.48241 -3.26505,1.96107 -6.0659,-1.36756 -4.18591,-4.97466 -7.67995,-3.47918 -4.81506,2.06089 0.88727,1.71579 1.38608,3.71154 1.10846,4.435 -0.68646,1.78888 -16.53062,14.50411 -18.07324,14.50411 -0.67836,0 -1.53338,-0.3 -1.90004,-0.66667 z m 440.08232,-8.94048 c -6.8966,-7.29183 -7.9965,-10.69023 -3.6241,-11.1972 2.0942,-0.24281 3.5776,0.76816 7.3365,5 6.0312,6.79005 7.2445,9.24891 5.5632,11.27474 -0.6982,0.84128 -1.6649,1.52961 -2.1481,1.52961 -0.4832,0 -3.6906,-2.97322 -7.1275,-6.60715 z m 8.4451,-8.97728 c -6.2182,-4.69872 -11.556,-9.19516 -11.8618,-9.99208 -0.5651,-1.47247 1.2487,-4.42349 2.7188,-4.42349 0.4434,0 5.3411,3.375 10.8838,7.5 5.5427,4.125 10.7098,7.5 11.4824,7.5 1.7559,0 6.5827,-5.6259 6.5827,-7.67243 0,-0.83544 -0.7424,-2.77576 -1.6498,-4.31181 -1.9294,-3.26634 -1.2304,-6.01576 1.5295,-6.01576 2.6753,0 7.1203,5.5593 7.1203,8.90528 0,5.13234 -9.7116,17.12485 -13.8267,17.07407 -0.9203,-0.0113 -6.7609,-3.86505 -12.9792,-8.56378 z m -332.5391,3.75569 -1.65499,-1.82874 v -67.44875 -67.44876 l -1.52948,-2.18364 c -2.31354,-3.30304 -7.83075,-4.47543 -12.84247,-2.72899 -2.27043,0.79118 -7.54581,1.44506 -11.72306,1.45307 l -7.59501,0.0145 -1.73535,-1.91753 c -3.08709,-3.41121 -1.52374,-6.0583 9.46373,-16.02406 47.57922,-43.15491 132.33865,-119.27689 133.88935,-120.24534 3.5812,-2.23647 -5.5083,-10.0465 116.3223,99.94859 18.5625,16.75921 33.74998,31.21874 33.74998,32.1323 0,0.91357 -0.7005,2.66116 -1.55668,3.88353 l -1.5567,2.22256 h -8.7433 c -5.195,0 -9.2045,-0.46117 -9.8797,-1.13636 -1.8702,-1.87021 -9.1278,-1.35549 -12.0925,0.85761 l -2.6711,1.99397 -0.5,68.7233 -0.5,68.7233 -1.9411,1.41909 -1.9412,1.41909 h -39.7374 -39.7375 l -1.6254,-1.62543 c -0.9867,-0.98669 -1.506,-2.85329 -1.3214,-4.75 l 0.304,-3.12457 12.4284,-6.25 12.4283,-6.25 h 16.1305 c 12.3509,0 16.5854,-0.33251 18.0717,-1.41909 l 1.9411,-1.41908 0.2707,-66.43791 c 0.1488,-36.54085 -0.076,-67.36071 -0.5,-68.48857 -0.4239,-1.12787 -11.3908,-12.10472 -24.3709,-24.39301 -12.98,-12.28829 -31.2889,-29.65484 -40.6864,-38.59234 -13.2186,-12.57172 -17.6831,-16.25 -19.7231,-16.25 -1.931,0 -4.9595,2.19902 -11.3136,8.21489 -4.7722,4.5182 -16.7707,15.8807 -26.6634,25.25 -9.8927,9.36931 -22.9427,21.69918 -29,27.39971 -6.0573,5.70053 -12.7008,12.0956 -14.7633,14.21127 l -3.75001,3.84668 v 66.81622 66.81622 l 1.55671,2.2225 1.5567,2.22251 h 11.7231 c 35.0247,0 74.2305,-9.86238 97.9329,-24.63544 29.9648,-18.67625 41.1658,-48.92744 24.0682,-65.00261 -6.1667,-5.79795 -9.3202,-6.86195 -20.3376,-6.86195 h -10 l -4.5,2.35816 c -2.475,1.297 -6.6057,4.1095 -9.1794,6.25 -5.8429,4.85952 -8.6864,4.95516 -14.1526,0.47599 -2.2927,-1.87871 -6.6435,-4.69121 -9.6683,-6.25 l -5.4997,-2.83415 h -9.5 -9.5 l -4.4556,2.5 c -2.4506,1.375 -5.8256,4.45289 -7.5,6.83974 l -3.0444,4.33975 v 9.2144 9.21439 l 3.9178,7.94586 c 3.0698,6.22599 5.8089,9.82092 12.6549,16.60867 4.8054,4.76455 9.0189,9.55034 9.3631,10.63509 1.6114,5.07707 -4.3081,10.2021 -11.7836,10.2021 h -4.5392 l -6.3065,-4.82764 c -12.1366,-9.29061 -22.8947,-24.73475 -26.2781,-37.72466 -4.9926,-19.16791 3.2351,-38.2133 20.2284,-46.82446 8.965,-4.54293 15.9208,-6.05169 27.7432,-6.01769 l 11,0.0316 9,3.29786 c 4.95,1.81382 9.9,3.28208 11,3.2628 1.1,-0.0193 6.05,-1.49925 11,-3.28883 l 9,-3.25377 11,-0.0407 c 31.0412,-0.11476 51.3796,18.23094 49.0542,44.24814 -1.524,17.05112 -9.0267,31.68254 -23.1025,45.05318 -30.06,28.55408 -89.0761,47.08417 -149.95734,47.08417 h -14.18439 z m -139.81453,-1.92126 c -4.68347,-5.08326 -9.84046,-12.52367 -9.84046,-14.19764 0,-1.99733 3.39264,-5.21414 16.16266,-15.32498 12.71317,-10.06583 15.71984,-11.86063 17.90763,-10.68976 2.53577,1.3571 11.92971,13.47232 11.92971,15.38556 0,2.34549 -2.8771,3.12829 -4.72093,1.28446 l -1.56585,-1.56584 -2.31417,1.5163 c -1.81207,1.18732 -2.192,2.12715 -1.7511,4.33167 l 0.56308,2.81536 -5.85552,4.60322 c -3.22053,2.53177 -6.41801,4.37561 -7.10551,4.09743 -0.6875,-0.27818 -1.86894,-0.75741 -2.62543,-1.06497 -0.75648,-0.30755 -2.61707,0.50883 -4.13463,1.81418 l -2.7592,2.37337 1.20402,2.24974 c 0.93234,1.74209 0.93509,2.57379 0.0122,3.68582 -1.64409,1.98101 -2.20326,1.83713 -5.10649,-1.31392 z m 3.82079,-11.8052 3.35004,-2.55519 -0.99592,-1.86088 -0.99591,-1.86089 5.20278,-4.67774 5.20278,-4.67775 3.64275,0.5825 c 2.85136,0.45595 4.03375,0.15045 5.44248,-1.40618 l 1.79973,-1.98867 -1.8419,-2.03527 c -1.01304,-1.11939 -2.42619,-1.81105 -3.14034,-1.537 -3.31487,1.27203 -25.25723,19.88609 -24.66721,20.92558 1.10458,1.94603 2.55846,3.64669 3.11752,3.64669 0.29324,0 2.04068,-1.14984 3.8832,-2.5552 z m 14.2692,-4.87077 c 3.79062,-4.03493 0.4502,-6.32235 -3.98642,-2.72979 -1.45714,1.17992 -2.04867,2.44068 -1.64217,3.5 0.89775,2.3395 2.9741,2.05537 5.62859,-0.77021 z m 506.10664,0.37157 c -8.6583,-5.59614 -15.3203,-12.74414 -19.1747,-20.57346 l -3.2582,-6.61848 -0.4205,-8.7935 -0.4204,-8.7935 2.6134,-9.11066 c 1.5425,-5.37737 6.0669,-15.96312 11.0413,-25.83333 10.7115,-21.25374 12.0057,-25.55872 12.0166,-39.97267 0.01,-6.1875 0.082,-11.25 0.1724,-11.25 0.4853,0 11.8075,26.07495 14.4069,33.17912 12.1583,33.22795 12.8486,60.2956 2.1426,84.0128 -3.969,8.79269 -9.7854,17.80808 -11.489,17.80808 -0.7466,0 -4.1803,-1.82448 -7.6304,-4.0544 z m -72.8742,-5.24933 c -2.6668,-3.21326 0.2675,-5.30367 10.6156,-7.56253 3.3648,-0.73449 4.5923,-0.62011 5.748,0.53561 2.4289,2.42894 0.1865,4.85213 -5.7197,6.18077 -2.9188,0.65658 -6.2382,1.44019 -7.3767,1.74135 -1.1827,0.31288 -2.583,-0.0708 -3.2672,-0.8952 z m 32.3371,-3.34852 c -6.1632,-0.81388 -7.5,-1.39216 -7.5,-3.24436 0,-3.46237 2.3665,-4.28525 10.1833,-3.54095 8.8402,0.84174 11.0441,1.82788 10.6274,4.75522 l -0.3107,2.18234 -5,0.12196 c -2.75,0.0671 -6.35,-0.0563 -8,-0.27421 z m -484.49999,-26.3211 c -51.49065,-15.14508 -78.6908,-36.85996 -89.10073,-71.13238 l -2.16097,-7.1145 1.38085,-0.90012 c 4.4805,-2.92066 15.83532,-5.33837 24.88085,-5.29773 23.61041,0.10608 35.8538,11.95543 50.89493,49.25693 7.4663,18.51619 13.77432,26.86632 28.61566,37.87947 1.64418,1.22008 2.76441,2.20554 2.48941,2.18992 -0.275,-0.0156 -7.925,-2.21234 -17,-4.88159 z m 32.92045,-22.03699 c -9.27441,-1.56972 -17.81254,-8.07905 -22.15393,-16.8898 l -2.26652,-4.59986 v -99 -99 l 2.85138,-5.80688 c 3.44028,-7.0062 10.4734,-12.96967 17.89545,-15.17378 l 5.11617,-1.51934 h 46.8185 46.8185 V 341.53138 294.0689 l 2.04351,-5.46177 c 2.33769,-6.24804 7.92677,-12.49078 14.16523,-15.82188 l 4.29126,-2.29138 h 101.00001 101 l 4.0449,2.16571 c 4.942,2.64598 11.7468,9.8635 14.1581,15.01679 l 1.7863,3.8175 0.2997,48.714 0.2997,48.714 48.70558,0.286 48.7057,0.286 4.9229,2.42291 c 6.2785,3.09008 12.0991,8.91067 14.8893,14.88929 l 2.1878,4.6878 v 98 98 l -1.9174,4.97183 c -2.5317,6.56446 -9.386,13.74854 -15.8688,16.63226 l -5.2138,2.3192 -25.25,0.38816 c -13.8875,0.2135 -25.25,0.10975 -25.25,-0.23053 0,-0.34029 1.3188,-3.09015 2.9307,-6.1108 1.6119,-3.02064 3.4835,-7.96214 4.1592,-10.9811 l 1.2283,-5.48902 h 19.6859 19.6859 l 1.905,-2.10499 1.905,-2.10499 V 510.3023 415.8207 l -2.8058,-2.41341 -2.8057,-2.41342 h -56.9443 -56.94418 v -57.04545 -57.04546 l -2.4546,-2.45454 -2.4545,-2.45455 h -94.9729 -94.97285 l -2.07258,2.63486 -2.07258,2.63486 v 56.86514 56.86514 h -56.45295 c -39.24338,0 -57.19579,0.33846 -58.88973,1.11027 -1.34022,0.61065 -2.9364,2.20683 -3.54705,3.54705 -0.78822,1.72996 -1.11027,29.36022 -1.11027,95.25487 v 92.81809 l 2.0561,2.61391 2.0561,2.6139 19.59246,0.27096 19.59246,0.27095 1.66952,6.10172 c 0.91823,3.35594 2.86063,8.13419 4.31643,10.61833 1.45581,2.48415 2.36267,4.80087 2.01526,5.14829 -0.88932,0.88932 -42.82558,0.56106 -48.37788,-0.37868 z m 537.05124,-38.86662 c -17.9247,-5.73706 -29.5519,-17.39076 -32.8473,-32.92226 -1.8434,-8.68805 -1.3297,-23.57583 1.3717,-39.75309 1.3728,-8.22123 2.4978,-17.91321 2.5,-21.53773 0,-7.14206 -2.7098,-19.21359 -5.9838,-26.61508 l -2.0534,-4.64206 2.153,1.92359 c 4.4469,3.97289 23.6059,26.41592 29.1496,34.14587 16.9413,23.62279 24.6205,48.47579 21.951,71.04257 -0.6334,5.35433 -1.8577,12.09765 -2.7208,14.98515 l -1.5692,5.25 -3.2112,-0.0538 c -1.7662,-0.0296 -5.699,-0.85001 -8.7396,-1.82318 z M 343.28708,571.18488 c -43.41113,-28.36788 -61.71086,-52.88639 -64.8481,-86.88542 -0.4568,-4.95051 -0.62398,-10.40836 -0.37151,-12.12856 l 0.45904,-3.12763 3.48588,-0.65395 c 4.48363,-0.84114 16.47838,0.2495 22.41289,2.03792 12.20368,3.67768 20.61857,10.96214 26.1678,22.65248 4.42599,9.32405 6.34259,17.93356 8.26934,37.14644 0.83834,8.35971 2.02152,17.23982 2.62929,19.73359 1.70018,6.97617 6.30374,16.5636 11.34654,23.63045 2.51326,3.52202 4.42547,6.40367 4.24935,6.40367 -0.17611,0 -6.38635,-3.96404 -13.80052,-8.80899 z m 263.01969,-29.69101 v -6.5 h 8.5 8.5 v 6.5 6.5 h -8.5 -8.5 z m 26,0 v -6.5 h 8.5 8.5 v 6.5 6.5 h -8.5 -8.5 z m -26,-20 v -6.5 h 8.5 8.5 v 6.5 6.5 h -8.5 -8.5 z m 26,0 v -6.5 h 8.5 8.5 v 6.5 6.5 h -8.5 -8.5 z M 336.17007,487.76759 C 297.22828,442.71344 286.2457,409.88399 297.38699,371.83603 l 1.94957,-6.65783 6.1469,1.43397 c 9.99514,2.33171 18.65599,7.04138 25.37228,13.79716 13.41778,13.49666 15.50574,27.73165 8.86309,60.42547 l -3.58792,17.65907 0.44463,10 c 0.31921,7.17932 1.16506,12.11551 2.99873,17.5 1.40476,4.125 2.43357,7.62317 2.28625,7.77372 -0.14733,0.15055 -2.70803,-2.54945 -5.69045,-6 z m 618.66498,1.21339 c -15.6822,-2.79074 -26.4813,-11.11067 -33.1468,-25.53726 -4.2167,-9.12642 -5.804,-15.27347 -8.3794,-32.44985 -1.1133,-7.425 -2.7345,-15.975 -3.6028,-19 -2.2188,-7.73017 -7.6197,-17.64313 -12.9031,-23.68289 -2.4729,-2.8269 -4.4962,-5.36802 -4.4962,-5.64693 0,-0.27891 3.9375,1.63711 8.75,4.25783 42.7039,23.25507 63.2189,44.1537 72.7121,74.07199 2.7816,8.76624 4.6463,26.19694 2.9169,27.26579 -1.7613,1.08854 -16.9666,1.59049 -21.8507,0.72132 z M 346.41033,392.67554 c -21.2852,-53.81476 -19.90154,-87.26758 5.00563,-121.0212 2.27004,-3.0763 20.79799,12.88401 25.61915,22.06881 8.9433,17.03787 6.42409,32.50345 -9.92917,60.95573 -4.85571,8.44822 -10.02328,18.83767 -11.4835,23.08769 l -2.65495,7.7273 -0.0804,11.24665 c -0.0442,6.18566 -0.15632,11.24816 -0.24917,11.25 -0.0928,0.002 -2.89527,-6.8899 -6.22762,-15.31498 z m 575.20192,-3.11103 c -15.1623,-3.67566 -26.4029,-15.86881 -38.865,-42.15831 -9.9151,-20.91637 -16.1342,-28.82084 -29.4405,-37.41893 l -6.5,-4.20008 3.5,0.67881 c 8.3985,1.62884 32.3476,7.72349 39.5905,10.07513 9.5147,3.08923 26.4554,11.03452 33.096,15.52221 8.4581,5.71592 15.4615,12.14704 21.4921,19.73589 5.9056,7.43167 14.2411,23.02643 15.3936,28.79985 l 0.6199,3.10521 -6.3804,2.55424 c -11.5893,4.63951 -22.4493,5.74401 -32.5062,3.30598 z M 387.9565,317.84025 c -0.97736,-13.76911 -0.78173,-37.32239 0.3893,-46.87261 3.6772,-29.98886 16.10019,-52.00796 39.10235,-69.30693 l 3.64139,-2.73854 3.68614,4.28585 c 12.70028,14.76655 16.80769,33.97384 10.43369,48.79059 -3.87474,9.00709 -12.91025,20.00489 -26.20913,31.90113 -6.90651,6.17807 -14.35345,13.56414 -16.54876,16.41349 -4.49635,5.83594 -10.81735,18.41869 -11.74992,23.38972 -1.07423,5.72616 -2.07402,3.59088 -2.74506,-5.8627 z m 474.85025,-16.25741 c -5.6083,-1.39192 -14.2308,-5.57025 -19.5,-9.4494 -1.925,-1.41718 -10.2667,-9.11583 -18.5371,-17.10813 -16.3107,-15.76212 -23.0948,-20.44886 -34.7464,-24.00419 -12.0687,-3.68263 -12.0764,-3.63218 0.7835,-5.12979 15.5608,-1.81214 50.9248,-1.82883 59,-0.0278 22.8077,5.08674 35.452,11.82692 50.4637,26.90035 l 10.4636,10.5067 -5.4963,5.11166 c -6.495,6.04047 -15.3155,10.95582 -23.4726,13.08047 -6.9011,1.79752 -12.068,1.83027 -18.9584,0.12016 z M 449.72256,262.97215 c 6.68411,-29.1388 8.74674,-36.30956 14.48628,-50.36169 11.41574,-27.94921 31.22282,-48.25899 55.81,-57.22643 l 7.46451,-2.72246 0.91529,1.41615 c 1.81211,2.80372 5.78562,16.71125 6.44847,22.57001 1.31183,11.59502 -3.14902,24.49931 -11.46577,33.16807 -6.69465,6.97801 -15.37136,12.48462 -32.70494,20.75599 -21.98882,10.49279 -28.64652,15.59696 -37.35562,28.63895 -2.53992,3.80356 -3.94476,5.27211 -3.59822,3.76141 z m 329.10529,-26.10846 c -7.34848,-2.09342 -15.72678,-5.94592 -34.26768,-15.75683 -13.2606,-7.01683 -21.2105,-9.09809 -34.9508,-9.15008 l -9.8026,-0.0371 11.5,-5.08143 c 16.6615,-7.36213 38.7605,-14.393 51.5,-16.38491 12.75238,-1.99394 29.02468,-1.55036 39.49998,1.07677 7.2678,1.82272 26.9133,11.04965 31.4438,14.7683 l 2.9438,2.41627 -3.4222,5.38959 c -4.5572,7.17695 -12.1392,15.15826 -17.8336,18.77294 -9.8584,6.25784 -23.4446,7.73721 -36.6107,3.98647 z M 526.83979,217.93001 c 3.09375,-5.98266 15.36291,-24.94768 21.11208,-32.6339 13.0688,-17.47217 30.6356,-32.21426 46.138,-38.71907 12.4939,-5.24245 37.4949,-9.33005 39.3323,-6.43074 1.4036,2.21486 0.9964,18.99804 -0.6107,25.16797 -2.0644,7.92612 -4.8929,13.11123 -10.3131,18.90583 -9.7616,10.43593 -22.4263,14.9891 -50.6916,18.22447 -7.15,0.81842 -15.475,2.22017 -18.5,3.11502 -7.186,2.12571 -17.79148,7.70797 -22.81758,12.01012 -4.93235,4.22191 -5.68473,4.29619 -3.6494,0.3603 z m 88.46698,-17.88236 c 46.05,-42.21378 79.0301,-54.08583 119.7721,-43.11515 l 4.2279,1.13846 v 2.53514 c 0,3.44554 -4.6531,17.0784 -7.3,21.38777 -5.6565,9.20932 -15.0454,16.60861 -24.6315,19.41174 -8.7657,2.56322 -25.4832,2.11254 -41.312,-1.1137 -9.8835,-2.01447 -16.1826,-2.7007 -24.7565,-2.69699 l -11.5,0.005 -7.5,2.57067 c -4.125,1.41387 -8.4,2.89277 -9.5,3.28644 -1.1,0.39368 0.025,-1.14051 2.5,-3.40934 z"
       id="path1" />
  </g>
</svg>
